<?xml version="1.0" encoding="utf-8"?>
<!-- Generator: Adobe Illustrator 19.1.0, SVG Export Plug-In . SVG Version: 6.00 Build 0)  -->
<svg version="1.1" id="Layer_1" xmlns="http://www.w3.org/2000/svg" xmlns:xlink="http://www.w3.org/1999/xlink" x="0px" y="0px"
	 viewBox="0 0 164 150" enable-background="new 0 0 164 150" xml:space="preserve">
<g>

		<rect x="37.5" y="44.4" transform="matrix(-0.9659 0.2588 -0.2588 -0.9659 172.7232 157.242)" fill-rule="evenodd" clip-rule="evenodd" fill="#EAEBEC" width="77.1" height="91.1"/>
</g>
<g>

		<rect x="68.4" y="28.4" transform="matrix(-0.866 -0.5 0.5 -0.866 163.494 191.0721)" fill-rule="evenodd" clip-rule="evenodd" fill="#EAEBEC" width="77.9" height="90.4"/>
</g>
<g>

		<rect x="56.5" y="25.4" transform="matrix(-0.9659 -0.2588 0.2588 -0.9659 168.4108 164.1532)" fill-rule="evenodd" clip-rule="evenodd" fill="#EAEBEC" width="77.1" height="91.1"/>
</g>
<g>
	<path fill-rule="evenodd" clip-rule="evenodd" fill="#EAEBEC" d="M41,25h87v105c0,2.2-1.8,4-4,4H45c-2.2,0-4-1.8-4-4V25z"/>
</g>
<g>

		<rect x="33.5" y="40.4" transform="matrix(-0.9659 0.2588 -0.2588 -0.9659 163.7129 150.2751)" fill-rule="evenodd" clip-rule="evenodd" fill="none" width="77" height="91"/>
</g>
<g>

		<rect x="34.5" y="41.4" transform="matrix(-0.9659 0.2588 -0.2588 -0.9659 163.7126 150.2753)" fill-rule="evenodd" clip-rule="evenodd" fill="#FFFFFF" width="75" height="89"/>
</g>
<g>

		<rect x="65.6" y="23.2" transform="matrix(-0.866 -0.5 0.5 -0.866 159.9113 180.1564)" fill-rule="evenodd" clip-rule="evenodd" fill="none" width="77" height="91"/>
</g>
<g>

		<rect x="59.6" y="31.2" transform="matrix(-0.5 0.866 -0.866 -0.5 215.5941 12.8354)" fill-rule="evenodd" clip-rule="evenodd" fill="#FFFFFF" width="89" height="75"/>
</g>
<g>

		<rect x="52.5" y="21.4" transform="matrix(-0.9659 -0.2588 0.2588 -0.9659 161.5106 155.0916)" fill-rule="evenodd" clip-rule="evenodd" fill="none" width="77" height="91"/>
</g>
<g>

		<rect x="46.5" y="29.4" transform="matrix(-0.2588 0.9659 -0.9659 -0.2588 179.1418 -3.632)" fill-rule="evenodd" clip-rule="evenodd" fill="#FFFFFF" width="89" height="75"/>
</g>
<g>
	<path fill="#EAEBEC" d="M41,129c-1.7,0-3-1.3-3-3V22h85v104c0,1.7-1.3,3-3,3H41z"/>
</g>
<g>
	<path fill-rule="evenodd" clip-rule="evenodd" fill="none" d="M37,21h87v105c0,2.2-1.8,4-4,4H41c-2.2,0-4-1.8-4-4V21z"/>
</g>
<g>
	<path fill-rule="evenodd" clip-rule="evenodd" fill="none" d="M37,21h87v105c0,2.2-1.8,4-4,4H41c-2.2,0-4-1.8-4-4V21z"/>
</g>
<g>
	<rect x="37" y="21" fill-rule="evenodd" clip-rule="evenodd" fill="none" width="87" height="16"/>
</g>
<g>
	<rect x="38" y="22" fill-rule="evenodd" clip-rule="evenodd" fill="#FFFFFF" width="85" height="14"/>
</g>
<g>
	<rect x="47" y="28" fill-rule="evenodd" clip-rule="evenodd" fill="#C9CDCF" width="12" height="2"/>
</g>
<g>
	<rect x="101" y="28" fill-rule="evenodd" clip-rule="evenodd" fill="#C9CDCF" width="12" height="2"/>
</g>
<g>
	<rect x="42" y="36" fill="#FFFFFF" width="77" height="89"/>
</g>
<g>
	<rect x="41" y="35" fill-rule="evenodd" clip-rule="evenodd" fill="none" width="79" height="91"/>
</g>
<g>
	<path fill-rule="evenodd" clip-rule="evenodd" fill="none" d="M41,127h-1v-1V35v-1h1h79h1v1v91v1h-1H41z"/>
</g>
<g>
	<rect x="41" y="35" fill-rule="evenodd" clip-rule="evenodd" fill="none" width="79" height="91"/>
</g>
<g>
	<g>
		<polygon fill="#FFFFFF" points="84,45 76,46.8 53.9,39.9 42,46.2 42,36 119,36 119,47.9 102.9,46 94,48 		"/>
	</g>
	<path fill="#C9CDCF" d="M37,21v105c0,2.2,1.8,4,4,4h79c2.2,0,4-1.8,4-4V21H37z M122,126c0,1.1-0.9,2-2,2H41c-1.1,0-2-0.9-2-2V37h2
		v10.8V126h79V49V37h2V126z M103.2,45l-0.3,0l-0.3,0.1l-8.5,1.9l-9.5-2.9l-0.5-0.2l-0.5,0.1l-7.5,1.7l-21.5-6.7l-0.8-0.2l-0.7,0.4
		L43,44.5V37h75v9.8L103.2,45z M118,48.8V124H43V46.8L54,41l22,6.8l8-1.8l10,3l9-2L118,48.8z M122,35h-2H41h-2V23h83V35z"/>
</g>
<g>
	<polygon fill-rule="evenodd" clip-rule="evenodd" fill="none" points="41,35 120,35 120,49 103,47 94,49 84,46 76,47.8 54,41
		41,47.8 	"/>
</g>
<g>
	<path fill-rule="evenodd" clip-rule="evenodd" fill="none" d="M41,36h79l-1-1v14l1.1-1l-17-2l-0.2,0l-0.2,0l-9,2l0.5,0l-10-3L84,45
		L83.8,45l-8,1.8l0.5,0l-22-6.8l-0.4-0.1l-0.4,0.2l-13,6.8l1.5,0.9V35L41,36z"/>
</g>
<g>
	<polygon fill-rule="evenodd" clip-rule="evenodd" fill="none" points="41,35 120,35 120,49 103,47 94,49 84,46 76,47.8 54,41
		41,47.8 	"/>
</g>
<g>
	<polygon fill-rule="evenodd" clip-rule="evenodd" fill="#EAEBEC" points="43,49 54,43 76,50 84,48 94,51 103,48.8 118,51 118,48.8
		103,47 93,48.8 84,46 76,48 54,41 43,46.6 	"/>
</g>
<g>
	<rect x="56" y="71" fill-rule="evenodd" clip-rule="evenodd" fill="none" width="28" height="3"/>
</g>
<g>
	<rect x="56" y="71" fill-rule="evenodd" clip-rule="evenodd" fill="#C9CDCF" width="28" height="3"/>
</g>
<g>
	<rect x="49" y="71" fill-rule="evenodd" clip-rule="evenodd" fill="none" width="3" height="3"/>
</g>
<g>
	<rect x="49" y="71" fill-rule="evenodd" clip-rule="evenodd" fill="#C9CDCF" width="3" height="3"/>
</g>
<g>
	<rect x="104" y="71" fill-rule="evenodd" clip-rule="evenodd" fill="none" width="8" height="3"/>
</g>
<g>
	<rect x="104" y="71" fill-rule="evenodd" clip-rule="evenodd" fill="#C9CDCF" width="8" height="3"/>
</g>
<g>
	<rect x="56" y="80" fill-rule="evenodd" clip-rule="evenodd" fill="none" width="19" height="3"/>
</g>
<g>
	<rect x="56" y="80" fill-rule="evenodd" clip-rule="evenodd" fill="#C9CDCF" width="19" height="3"/>
</g>
<g>
	<rect x="49" y="80" fill-rule="evenodd" clip-rule="evenodd" fill="none" width="3" height="3"/>
</g>
<g>
	<rect x="49" y="80" fill-rule="evenodd" clip-rule="evenodd" fill="#C9CDCF" width="3" height="3"/>
</g>
<g>
	<rect x="104" y="80" fill-rule="evenodd" clip-rule="evenodd" fill="none" width="8" height="3"/>
</g>
<g>
	<rect x="104" y="80" fill-rule="evenodd" clip-rule="evenodd" fill="#C9CDCF" width="8" height="3"/>
</g>
<g>
	<rect x="56" y="89" fill-rule="evenodd" clip-rule="evenodd" fill="none" width="23" height="3"/>
</g>
<g>
	<rect x="56" y="89" fill-rule="evenodd" clip-rule="evenodd" fill="#C9CDCF" width="23" height="3"/>
</g>
<g>
	<rect x="49" y="89" fill-rule="evenodd" clip-rule="evenodd" fill="none" width="3" height="3"/>
</g>
<g>
	<rect x="49" y="89" fill-rule="evenodd" clip-rule="evenodd" fill="#C9CDCF" width="3" height="3"/>
</g>
<g>
	<rect x="83" y="106" fill-rule="evenodd" clip-rule="evenodd" fill="none" width="16" height="3"/>
</g>
<g>
	<rect x="84" y="106" fill-rule="evenodd" clip-rule="evenodd" fill="#C9CDCF" width="16" height="3"/>
</g>
<g>
	<rect x="88" y="113" fill-rule="evenodd" clip-rule="evenodd" fill="#C9CDCF" width="12" height="3"/>
</g>
<g>
	<rect x="104" y="89" fill-rule="evenodd" clip-rule="evenodd" fill="none" width="8" height="3"/>
</g>
<g>
	<rect x="104" y="89" fill-rule="evenodd" clip-rule="evenodd" fill="#C9CDCF" width="8" height="3"/>
</g>
<g>
	<rect x="104" y="106" fill-rule="evenodd" clip-rule="evenodd" fill="none" width="8" height="3"/>
</g>
<g>
	<rect x="104" y="106" fill-rule="evenodd" clip-rule="evenodd" fill="#C9CDCF" width="8" height="3"/>
</g>
<g>
	<rect x="104" y="113" fill-rule="evenodd" clip-rule="evenodd" fill="#C9CDCF" width="8" height="3"/>
</g>
<g>
	<rect x="49" y="98" fill-rule="evenodd" clip-rule="evenodd" fill="none" width="63" height="2"/>
</g>
<g>
	<rect x="49" y="98" fill-rule="evenodd" clip-rule="evenodd" fill="#C9CDCF" width="63" height="2"/>
</g>
<g>
	<rect x="9" y="39" fill-rule="evenodd" clip-rule="evenodd" fill="#EAEBEC" width="9" height="58"/>
</g>
<g>
	<path fill-rule="evenodd" clip-rule="evenodd" fill="#EAEBEC" d="M8,29.5c0-3,2.5-5.5,5.5-5.5c3,0,5.5,2.5,5.5,5.5V56H8V29.5z"/>
</g>
<g>
	<path fill-rule="evenodd" clip-rule="evenodd" fill="#EAEBEC" d="M11,96h5v4.7c0,0-5,2.4-5,8.3V96z"/>
</g>
<g>
	<rect x="5" y="36" fill-rule="evenodd" clip-rule="evenodd" fill="none" width="9" height="58"/>
</g>
<g>
	<g>
		<rect x="6" y="37" fill-rule="evenodd" clip-rule="evenodd" fill="#FFFFFF" width="7" height="56"/>
	</g>
	<g>
		<g>
			<path fill="#C9CDCF" d="M12,38v54H7V38H12 M14,36H5v58h9V36L14,36z"/>
		</g>
	</g>
</g>
<g>
	<g>
		<path fill="#FFFFFF" d="M5,52V26.5C5,24,7,22,9.5,22s4.5,2,4.5,4.5V52H5z"/>
	</g>
	<g>
		<g>
			<path fill="#C9CDCF" d="M10,23c1.9,0,3,2.1,3,4v24H6V27c0-1.9,1.1-4,3-4H10z M9.5,21c-3,0-5.5,2-5.5,5v27h11V26
				C15,23,12.5,21,9.5,21L9.5,21z"/>
		</g>
	</g>
</g>
<g>
	<path fill-rule="evenodd" clip-rule="evenodd" fill="none" d="M4,26.5c0-3,2.5-5.5,5.5-5.5c3,0,5.5,2.5,5.5,5.5V53H4V26.5z"/>
</g>
<g>
	<path fill-rule="evenodd" clip-rule="evenodd" fill="none" d="M4,26.5c0-3,2.5-5.5,5.5-5.5c3,0,5.5,2.5,5.5,5.5V53H4V26.5z"/>
</g>
<g>
	<path fill-rule="evenodd" clip-rule="evenodd" fill="none" d="M7,93h5v4.7c0,0-5,2.4-5,8.3V93z"/>
</g>
<g>
	<path fill="#EAEBEC" d="M7,93h5v4.7c0,0-5,2.4-5,8.3V93z"/>
	<path fill="#C9CDCF" d="M8,106H6V92h7v6.4l-0.6,0.3C12.2,98.7,8,100.8,8,106z M8,94v5.9c1.1-1.4,2.3-2.3,3-2.7V94H8z"/>
</g>
<g>
	<path fill="#C9CDCF" d="M2,49H0V30.5C0,29.1,1.1,28,2.5,28H4v2H2.5C2.2,30,2,30.2,2,30.5V49z"/>
</g>
<g>
	<path fill-rule="evenodd" clip-rule="evenodd" fill="#EAEBEC" d="M8,23l-1.1,0.7C6.4,23.9,6,24.6,6,25.2V51h2V23z"/>
</g>
<g>
	<rect x="7" y="53" fill-rule="evenodd" clip-rule="evenodd" fill="#EAEBEC" width="2" height="39"/>
</g>
<g>
	<polygon fill="#C9CDCF" points="75.5,130 48,137.4 46,130 43.9,130 46.6,139.8 83.2,130 	"/>
	<polygon fill="#C9CDCF" points="37,96.5 25.4,53.3 37,50.2 37,48.2 23,51.9 37,104.2 	"/>
</g>
<g>
	<polygon fill="#C9CDCF" points="88.3,19.1 65.6,13 63.4,21 65.5,21 67,15.4 87.2,20.9 87.1,21 87.7,21 89.5,21 95.4,21 90.3,19.6
		94.2,12.7 108.6,21 112.6,21 93.5,10 	"/>
	<polygon fill="#C9CDCF" points="139,36.3 139.9,32.9 127.4,29.6 124,27.6 124,28.7 124,29.7 124,30.7 137.5,34.3 124,84.6
		124,92.4 138.5,38.3 157.5,49.2 124,107.2 124,111.2 160.2,48.5 	"/>
</g>
<rect x="-5358" y="-3632" fill="none" width="11700" height="7410"/>
<rect x="-5358" y="-3632" fill="none" width="11700" height="7410"/>
<rect x="-5358" y="-3632" fill="none" width="11700" height="7410"/>
<rect x="-5358" y="-3632" fill="none" width="11700" height="7410"/>
<rect x="-5358" y="-3632" fill="none" width="11700" height="7410"/>
<rect x="-5358" y="-3632" fill="none" width="11700" height="7410"/>
<g>
	<g>
		<defs>
			<rect id="SVGID_1_" x="-5358.4" y="-3632" width="11700" height="7410"/>
		</defs>
		<clipPath id="SVGID_2_">
			<use xlink:href="#SVGID_1_"  overflow="visible"/>
		</clipPath>
	</g>
</g>
<g>
	<defs>
		<polygon id="SVGID_3_" points="418.2,61 409.2,68 395.2,63 404.2,57 		"/>
	</defs>
	<defs>
		<path id="SVGID_4_" d="M409.4,69.1L393,63.3l11-7.4l16.3,4.7L409.4,69.1z M397.4,62.7l11.6,4.1l7-5.5l-11.7-3.3L397.4,62.7z"/>
	</defs>
	<use xlink:href="#SVGID_3_"  overflow="visible" fill-rule="evenodd" clip-rule="evenodd" fill="#FFFFFF"/>
	<use xlink:href="#SVGID_4_"  overflow="visible" fill="#C9CDCF"/>
	<clipPath id="SVGID_5_">
		<use xlink:href="#SVGID_3_"  overflow="visible"/>
	</clipPath>
	<clipPath id="SVGID_6_" clip-path="url(#SVGID_5_)">
		<use xlink:href="#SVGID_4_"  overflow="visible"/>
	</clipPath>
	<g clip-path="url(#SVGID_6_)">
		<defs>
			<rect id="SVGID_7_" x="-5358.4" y="-3632" width="11700" height="7410"/>
		</defs>
		<use xlink:href="#SVGID_7_"  overflow="visible" fill="#FFFFFF"/>
		<clipPath id="SVGID_8_">
			<use xlink:href="#SVGID_7_"  overflow="visible"/>
		</clipPath>
		<use xlink:href="#SVGID_7_"  overflow="visible" fill="none" stroke="#C9CDCF" stroke-width="2" stroke-miterlimit="10"/>
	</g>
</g>
<g>
	<defs>
		<polygon id="SVGID_9_" points="414.2,61 423.2,68 437.2,63 428.2,57 		"/>
	</defs>
	<clipPath id="SVGID_10_">
		<use xlink:href="#SVGID_9_"  overflow="visible"/>
	</clipPath>
	<g clip-path="url(#SVGID_10_)">
		<defs>
			<rect id="SVGID_11_" x="-5358.4" y="-3632" width="11700" height="7410"/>
		</defs>
		<clipPath id="SVGID_12_">
			<use xlink:href="#SVGID_11_"  overflow="visible"/>
		</clipPath>
	</g>
</g>
<g>
	<defs>
		<polygon id="SVGID_13_" points="458.2,42 461.2,47 466.2,47 469.2,42 465.2,37 462.2,37 		"/>
	</defs>
	<clipPath id="SVGID_14_">
		<use xlink:href="#SVGID_13_"  overflow="visible"/>
	</clipPath>
	<g clip-path="url(#SVGID_14_)">
		<defs>
			<rect id="SVGID_15_" x="-5358.4" y="-3632" width="11700" height="7410"/>
		</defs>
		<clipPath id="SVGID_16_">
			<use xlink:href="#SVGID_15_"  overflow="visible"/>
		</clipPath>
	</g>
</g>
<rect x="-5167" y="-3632" fill="none" width="11700" height="7410"/>
<rect x="-5167" y="-3632" fill="none" width="11700" height="7410"/>
<rect x="-5167" y="-3632" fill="none" width="11700" height="7410"/>
<rect x="-5167" y="-3632" fill="none" width="11700" height="7410"/>
<rect x="-5167" y="-3632" fill="none" width="11700" height="7410"/>
<rect x="-5167" y="-3632" fill="none" width="11700" height="7410"/>
<g>
	<g>
		<defs>
			<rect id="SVGID_17_" x="-2383" y="-1416" width="6000" height="3020"/>
		</defs>
		<clipPath id="SVGID_18_">
			<use xlink:href="#SVGID_17_"  overflow="visible"/>
		</clipPath>
	</g>
</g>
<g>
	<g>
		<defs>
			<rect id="SVGID_19_" x="-2383" y="-1416" width="6000" height="3020"/>
		</defs>
		<clipPath id="SVGID_20_">
			<use xlink:href="#SVGID_19_"  overflow="visible"/>
		</clipPath>
	</g>
</g>
<g>
	<g>
		<defs>
			<rect id="SVGID_21_" x="-2383" y="-1416" width="6000" height="3020"/>
		</defs>
		<clipPath id="SVGID_22_">
			<use xlink:href="#SVGID_21_"  overflow="visible"/>
		</clipPath>
	</g>
</g>
<g>
	<g>
		<defs>
			<rect id="SVGID_23_" x="-2383" y="-1416" width="6000" height="3020"/>
		</defs>
		<clipPath id="SVGID_24_">
			<use xlink:href="#SVGID_23_"  overflow="visible"/>
		</clipPath>
	</g>
</g>
<g>
	<g>
		<defs>
			<rect id="SVGID_25_" x="-2383" y="-1416" width="6000" height="3020"/>
		</defs>
		<clipPath id="SVGID_26_">
			<use xlink:href="#SVGID_25_"  overflow="visible"/>
		</clipPath>
	</g>
</g>
<g>
	<g>
		<defs>
			<rect id="SVGID_27_" x="-2383" y="-1416" width="6000" height="3020"/>
		</defs>
		<clipPath id="SVGID_28_">
			<use xlink:href="#SVGID_27_"  overflow="visible"/>
		</clipPath>
	</g>
</g>
<g>
	<g>
		<defs>
			<rect id="SVGID_29_" x="-2383" y="-1416" width="6000" height="3020"/>
		</defs>
		<clipPath id="SVGID_30_">
			<use xlink:href="#SVGID_29_"  overflow="visible"/>
		</clipPath>
	</g>
</g>
<g>
	<g>
		<defs>
			<rect id="SVGID_31_" x="-2383" y="-1416" width="6000" height="3020"/>
		</defs>
		<clipPath id="SVGID_32_">
			<use xlink:href="#SVGID_31_"  overflow="visible"/>
		</clipPath>
	</g>
</g>
<g>
	<g>
		<defs>
			<rect id="SVGID_33_" x="-2383" y="-1416" width="6000" height="3020"/>
		</defs>
		<clipPath id="SVGID_34_">
			<use xlink:href="#SVGID_33_"  overflow="visible"/>
		</clipPath>
	</g>
</g>
<g>
	<g>
		<defs>
			<rect id="SVGID_35_" x="-2383" y="-1416" width="6000" height="3020"/>
		</defs>
		<clipPath id="SVGID_36_">
			<use xlink:href="#SVGID_35_"  overflow="visible"/>
		</clipPath>
	</g>
</g>
<g>
	<g>
		<defs>
			<rect id="SVGID_37_" x="-2383" y="-1416" width="6000" height="3020"/>
		</defs>
		<clipPath id="SVGID_38_">
			<use xlink:href="#SVGID_37_"  overflow="visible"/>
		</clipPath>
	</g>
</g>
<g>
	<g>
		<defs>
			<rect id="SVGID_39_" x="-2383" y="-1416" width="6000" height="3020"/>
		</defs>
		<clipPath id="SVGID_40_">
			<use xlink:href="#SVGID_39_"  overflow="visible"/>
		</clipPath>
	</g>
</g>
<g>
	<g>
		<defs>
			<rect id="SVGID_41_" x="-2383" y="-1416" width="6000" height="3020"/>
		</defs>
		<clipPath id="SVGID_42_">
			<use xlink:href="#SVGID_41_"  overflow="visible"/>
		</clipPath>
	</g>
</g>
<g>
	<g>
		<defs>
			<rect id="SVGID_43_" x="-2383" y="-1416" width="6000" height="3020"/>
		</defs>
		<clipPath id="SVGID_44_">
			<use xlink:href="#SVGID_43_"  overflow="visible"/>
		</clipPath>
	</g>
</g>
<g>
	<g>
		<defs>
			<rect id="SVGID_45_" x="-2383" y="-1416" width="6000" height="3020"/>
		</defs>
		<clipPath id="SVGID_46_">
			<use xlink:href="#SVGID_45_"  overflow="visible"/>
		</clipPath>
	</g>
</g>
<g>
	<g>
		<defs>
			<rect id="SVGID_47_" x="-2383" y="-1416" width="6000" height="3020"/>
		</defs>
		<clipPath id="SVGID_48_">
			<use xlink:href="#SVGID_47_"  overflow="visible"/>
		</clipPath>
	</g>
</g>
<g>
	<g>
		<defs>
			<rect id="SVGID_49_" x="-2383" y="-1416" width="6000" height="3020"/>
		</defs>
		<clipPath id="SVGID_50_">
			<use xlink:href="#SVGID_49_"  overflow="visible"/>
		</clipPath>
	</g>
</g>
<g>
	<g>
		<defs>
			<rect id="SVGID_51_" x="-2383" y="-1416" width="6000" height="3020"/>
		</defs>
		<clipPath id="SVGID_52_">
			<use xlink:href="#SVGID_51_"  overflow="visible"/>
		</clipPath>
	</g>
</g>
<g>
	<g>
		<defs>
			<rect id="SVGID_53_" x="-2383" y="-1416" width="6000" height="3020"/>
		</defs>
		<clipPath id="SVGID_54_">
			<use xlink:href="#SVGID_53_"  overflow="visible"/>
		</clipPath>
	</g>
</g>
<g>
	<g>
		<defs>
			<rect id="SVGID_55_" x="-2383" y="-1416" width="6000" height="3020"/>
		</defs>
		<clipPath id="SVGID_56_">
			<use xlink:href="#SVGID_55_"  overflow="visible"/>
		</clipPath>
	</g>
</g>
<g>
	<g>
		<g>
			<defs>
				<rect id="SVGID_57_" x="-2383" y="-1416" width="6000" height="3020"/>
			</defs>
			<clipPath id="SVGID_58_">
				<use xlink:href="#SVGID_57_"  overflow="visible"/>
			</clipPath>
		</g>
	</g>
</g>
<g>
	<g>
		<defs>
			<rect id="SVGID_59_" x="-2383" y="-1416" width="6000" height="3020"/>
		</defs>
		<clipPath id="SVGID_60_">
			<use xlink:href="#SVGID_59_"  overflow="visible"/>
		</clipPath>
	</g>
</g>
<g>
	<g>
		<g>
			<defs>
				<rect id="SVGID_61_" x="-2383" y="-1416" width="6000" height="3020"/>
			</defs>
			<clipPath id="SVGID_62_">
				<use xlink:href="#SVGID_61_"  overflow="visible"/>
			</clipPath>
		</g>
	</g>
</g>
<g>
	<g>
		<defs>
			<rect id="SVGID_63_" x="-2383" y="-1416" width="6000" height="3020"/>
		</defs>
		<clipPath id="SVGID_64_">
			<use xlink:href="#SVGID_63_"  overflow="visible"/>
		</clipPath>
	</g>
</g>
<g>
	<g>
		<defs>
			<rect id="SVGID_65_" x="-2383" y="-1416" width="6000" height="3020"/>
		</defs>
		<clipPath id="SVGID_66_">
			<use xlink:href="#SVGID_65_"  overflow="visible"/>
		</clipPath>
	</g>
</g>
<g>
	<g>
		<defs>
			<rect id="SVGID_67_" x="-2383" y="-1416" width="6000" height="3020"/>
		</defs>
		<clipPath id="SVGID_68_">
			<use xlink:href="#SVGID_67_"  overflow="visible"/>
		</clipPath>
	</g>
</g>
<g>
	<g>
		<defs>
			<rect id="SVGID_69_" x="-2383" y="-1416" width="6000" height="3020"/>
		</defs>
		<clipPath id="SVGID_70_">
			<use xlink:href="#SVGID_69_"  overflow="visible"/>
		</clipPath>
	</g>
</g>
<g>
	<g>
		<defs>
			<rect id="SVGID_71_" x="-2383" y="-1416" width="6000" height="3020"/>
		</defs>
		<clipPath id="SVGID_72_">
			<use xlink:href="#SVGID_71_"  overflow="visible"/>
		</clipPath>
	</g>
</g>
<g>
	<g>
		<g>
			<defs>
				<rect id="SVGID_73_" x="-2383" y="-1416" width="6000" height="3020"/>
			</defs>
			<clipPath id="SVGID_74_">
				<use xlink:href="#SVGID_73_"  overflow="visible"/>
			</clipPath>
		</g>
	</g>
</g>
<g>
	<g>
		<defs>
			<rect id="SVGID_75_" x="-2383" y="-1416" width="6000" height="3020"/>
		</defs>
		<clipPath id="SVGID_76_">
			<use xlink:href="#SVGID_75_"  overflow="visible"/>
		</clipPath>
	</g>
</g>
<g>
	<g>
		<defs>
			<rect id="SVGID_77_" x="-2383" y="-1416" width="6000" height="3020"/>
		</defs>
		<clipPath id="SVGID_78_">
			<use xlink:href="#SVGID_77_"  overflow="visible"/>
		</clipPath>
	</g>
</g>
<g>
	<g>
		<defs>
			<rect id="SVGID_79_" x="-2383" y="-1416" width="6000" height="3020"/>
		</defs>
		<clipPath id="SVGID_80_">
			<use xlink:href="#SVGID_79_"  overflow="visible"/>
		</clipPath>
	</g>
</g>
<g>
	<g>
		<defs>
			<rect id="SVGID_81_" x="-2383" y="-1416" width="6000" height="3020"/>
		</defs>
		<clipPath id="SVGID_82_">
			<use xlink:href="#SVGID_81_"  overflow="visible"/>
		</clipPath>
	</g>
</g>
<g>
	<g>
		<defs>
			<rect id="SVGID_83_" x="-2383" y="-1416" width="6000" height="3020"/>
		</defs>
		<clipPath id="SVGID_84_">
			<use xlink:href="#SVGID_83_"  overflow="visible"/>
		</clipPath>
	</g>
</g>
<g>
	<g>
		<defs>
			<rect id="SVGID_85_" x="-2383" y="-1416" width="6000" height="3020"/>
		</defs>
		<clipPath id="SVGID_86_">
			<use xlink:href="#SVGID_85_"  overflow="visible"/>
		</clipPath>
	</g>
</g>
<g>
	<g>
		<defs>
			<rect id="SVGID_87_" x="-2383" y="-1416" width="6000" height="3020"/>
		</defs>
		<clipPath id="SVGID_88_">
			<use xlink:href="#SVGID_87_"  overflow="visible"/>
		</clipPath>
	</g>
</g>
<g>
	<g>
		<defs>
			<rect id="SVGID_89_" x="-2383" y="-1416" width="6000" height="3020"/>
		</defs>
		<clipPath id="SVGID_90_">
			<use xlink:href="#SVGID_89_"  overflow="visible"/>
		</clipPath>
	</g>
</g>
<g>
	<g>
		<defs>
			<rect id="SVGID_91_" x="-2383" y="-1416" width="6000" height="3020"/>
		</defs>
		<clipPath id="SVGID_92_">
			<use xlink:href="#SVGID_91_"  overflow="visible"/>
		</clipPath>
	</g>
</g>
<g>
	<g>
		<defs>
			<rect id="SVGID_93_" x="-2383" y="-1416" width="6000" height="3020"/>
		</defs>
		<clipPath id="SVGID_94_">
			<use xlink:href="#SVGID_93_"  overflow="visible"/>
		</clipPath>
	</g>
</g>
<g>
	<g>
		<defs>
			<rect id="SVGID_95_" x="-2383" y="-1416" width="6000" height="3020"/>
		</defs>
		<clipPath id="SVGID_96_">
			<use xlink:href="#SVGID_95_"  overflow="visible"/>
		</clipPath>
	</g>
</g>
<g>
	<g>
		<g>
			<defs>
				<rect id="SVGID_97_" x="-2383" y="-1416" width="6000" height="3020"/>
			</defs>
			<clipPath id="SVGID_98_">
				<use xlink:href="#SVGID_97_"  overflow="visible"/>
			</clipPath>
		</g>
	</g>
</g>
<g>
	<g>
		<defs>
			<rect id="SVGID_99_" x="-2383" y="-1416" width="6000" height="3020"/>
		</defs>
		<clipPath id="SVGID_100_">
			<use xlink:href="#SVGID_99_"  overflow="visible"/>
		</clipPath>
	</g>
</g>
<g>
	<g>
		<g>
			<defs>
				<rect id="SVGID_101_" x="-2383" y="-1416" width="6000" height="3020"/>
			</defs>
			<clipPath id="SVGID_102_">
				<use xlink:href="#SVGID_101_"  overflow="visible"/>
			</clipPath>
		</g>
	</g>
</g>
<g>
	<g>
		<defs>
			<rect id="SVGID_103_" x="-2383" y="-1416" width="6000" height="3020"/>
		</defs>
		<clipPath id="SVGID_104_">
			<use xlink:href="#SVGID_103_"  overflow="visible"/>
		</clipPath>
	</g>
</g>
</svg>
